<svg version="1.2" baseProfile="tiny-ps" xmlns="http://www.w3.org/2000/svg" viewBox="0 0 1500 1500" width="1500" height="1500">
	<title>3230449-ai</title>
	<style>
		tspan { white-space:pre }
		.txt0 { font-size: 18px;fill: #ffffff;font-weight: 700;font-family: "Montserrat-Bold", "Montserrat" } 
		.txt1 { font-size: 18px;fill: #ffffff;font-weight: 400;font-family: "Montserrat-Regular", "Montserrat" } 
		.shp2 { fill: #fffeff } 
		.shp3 { fill: #ff6e62 } 
		.shp4 { fill: #1f2c44 } 
		.shp5 { fill: #ffffff } 
	</style>
	<g id="OBJECTS">
		<g id="&lt;Group&gt;">
			<text id="Greeting From
" style="transform: matrix(3,0,0,3,384.564,824.883)" >
				<tspan x="0" y="0" class="txt0">GREETING</tspan><tspan  y="0" class="txt1"> FROM
</tspan>
			</text>
			<g id="&lt;Group&gt;">
				<g id="&lt;Group&gt;">
					<g id="&lt;Group&gt;">
						<path id="&lt;Path&gt;" class="shp2" d="M1209.76 415.99C1219.04 421.51 1226.57 429.73 1231.78 439.19C1220.18 439.28 1206.85 439.96 1192.09 441.6C1184.71 432.61 1171.77 420.58 1156.64 415.15C1167.28 420.89 1176.15 431.06 1181.88 442.84C1168.95 444.61 1154.99 447.12 1140.14 450.6C1131.58 443.62 1120.76 439.19 1110.18 435.56C1117.28 440.61 1123.95 446.38 1129.28 453.3C1110.65 458.13 1090.77 464.52 1069.92 472.87C1091.51 467.72 1114.4 467.93 1135.83 473.83C1166.69 482.36 1194.2 502.58 1211.5 529.56C1225.83 551.83 1236.06 575.18 1239.63 603.46C1229.69 592.28 1216.08 579.66 1198.82 565.6C1198.6 561.28 1198.04 556.97 1196.89 552.79C1195.03 546.15 1191.68 539.82 1186.6 535.14C1188.3 541.59 1188.61 548.41 1187.43 554.99C1187.37 555.45 1187.25 555.95 1187.16 556.42C1183.59 553.72 1179.9 550.99 1176.02 548.23C1175.62 544.41 1174.81 540.66 1173.73 537.03C1171.46 529.28 1168.02 521.93 1164.61 514.61C1165.94 523.14 1165.91 531.82 1164.7 540.35C1159.62 536.97 1154.34 533.59 1148.88 530.27C1147.74 518.7 1144.08 507.38 1138.09 497.43C1139.8 506.33 1140.05 515.48 1138.99 524.47C1116.41 511.66 1090.8 500.13 1063.04 492.37C1117.72 604.02 1178.78 792.12 1195.1 1060.66L1113.13 1051.82C1113.06 1048.94 1113 1046.06 1112.91 1043.2C1106.99 795.84 1089.74 628.99 1042.14 498.54C1042.12 498.52 1042.11 498.51 1042.11 498.51C1030.54 527.85 1023.5 564.82 1020.86 601.29C1011.25 595.52 1002.47 588.67 995 580.82C1000.45 595.12 1008.95 608.49 1019.87 620.09C1019.5 631.96 1019.56 643.84 1020.09 655.63C1010.13 650.7 1000.8 644.77 992.42 637.92C999.06 652.4 1017.33 666.39 1020.86 669.06C1022.35 689.59 1025.14 709.5 1029.3 727.83C994.62 691.29 968.05 647.56 965.16 600.98C964.19 585.19 966.19 568.89 971.09 553.29C971.2 552.92 971.29 552.62 971.33 552.48L971.33 552.45C971.36 552.42 971.36 552.38 971.36 552.35C975.77 538.68 982.4 525.59 991.24 513.9C973.1 530.49 952.41 552.23 932.69 579.24C927.11 572.6 922.67 565.16 919.76 557.22C920.04 567.89 921.68 579.12 926.12 588.51C920.63 596.45 915.26 604.77 910.08 613.54C905.52 607.06 901.58 600.18 898.36 593.01C896.56 588.95 894.95 584.73 894.64 580.33C895.19 594.78 898.76 609.14 905.03 622.44C893.74 642.66 883.5 664.99 875.19 689.53C875.17 689.48 875.15 689.41 875.13 689.31C863.06 647.1 860.52 616.27 870.76 583.55C881.02 550.74 901.96 520.91 930.08 498.89C943.89 488.06 960.63 480.77 978.31 476.03L978.34 476C985.6 474.04 993.04 472.49 1000.49 471.35C975.4 472.18 947.86 476.87 928.88 481.24C929.68 474.63 932.72 465.05 933.53 458.44C924.04 465.39 917 473.24 911.85 483.91C899.41 485.27 887.07 488.59 875.66 492.68C877.18 484.25 879.38 475.94 882.2 467.84C871.56 474.79 863.41 485.64 859.62 497.92C825.35 508.28 810.62 512.56 779.86 531.08C811.77 444.36 871.22 418.06 937.84 420.05C966.28 420.89 998 432.18 1023.44 449.33C1008.73 429.42 984.23 403.49 946.74 383.83C951.79 376.82 957.35 370.09 964.48 365.16C954.59 368.07 945.25 372.85 937.06 379.02C930.36 375.89 923.35 372.91 916 370.18C916.53 369.31 917.09 368.44 917.71 367.64C921.21 363.17 925.71 359.54 930.18 355.98C934.74 352.35 939.3 348.72 943.85 345.06C931.26 348.19 919.85 354.8 908.78 361.47C906.64 362.77 904.5 364.1 902.42 365.56C887.97 361.06 872.31 357.56 855.37 355.39C863.59 342.3 885.98 327.04 905.96 321.43C925.9 315.84 947.89 317.05 966.77 325.49C977.94 330.45 987.86 337.77 996.76 346.02C1020.15 367.73 1034.1 397.63 1039.69 429.17C1040.24 414.44 1042.04 399.8 1045.45 385.44C1052.77 354.86 1067.94 319.32 1096.69 303.47C1113.37 294.29 1132.82 293.2 1149.75 302.07C1164.67 309.89 1174.28 321.43 1182.97 339.66C1176.95 338.94 1170.03 338.72 1162.19 339.01C1156.27 331.48 1147.46 326.2 1137.94 324.87C1137.81 325.49 1138.46 325.95 1139.02 326.26C1144.92 329.52 1150.06 334.11 1154.06 339.57C1147.02 340.25 1139.58 341.55 1132.76 343.97C1127.86 338.48 1120.76 334.86 1113.37 334.55C1118.46 337.77 1122.93 341.86 1126.83 346.45C1124.04 347.82 1121.44 349.37 1119.11 351.23C1112.01 356.87 1105.59 363.2 1099.79 369.96C1093.93 367.57 1087.57 366.43 1081.24 366.77C1086.7 368.1 1091.7 370.96 1095.79 374.83C1078.48 396.6 1067.13 422.03 1059.91 442.94C1064.22 437.05 1068.65 431.74 1072.56 428.02C1102.83 399.33 1142.22 384.54 1180.8 387.3C1219.41 390.09 1256.84 410.44 1283.7 443.22C1273.42 440.9 1259.33 439.58 1241.43 439.25C1235.2 429.91 1227.29 422.9 1209.76 415.99Z" />
					</g>
					<g id="&lt;Group&gt;">
						<path id="&lt;Path&gt;" class="shp2" d="M1384.81 769.99C1391.55 789.02 1390.79 807.2 1384.62 832.34C1379.18 818.11 1372.68 805.22 1365.56 793.61C1368.94 785.74 1370.7 777.32 1370.7 768.87C1370.58 771.39 1369.76 773.82 1368.79 776.19C1367.08 780.45 1364.93 784.58 1362.4 788.54C1359.15 783.46 1355.81 778.72 1352.43 774.19C1354.8 768.53 1355.5 761.94 1355.44 755.64C1353.92 760.39 1351.46 764.86 1348.33 768.9C1336.14 753.49 1323.49 741.21 1312.49 731.87C1324.25 746.25 1330.15 764.79 1329.76 782.43C1329.15 809.78 1314.53 836.11 1295.01 858.36C1297.05 847.51 1298.2 835.71 1298.63 823.64C1298.99 823.34 1299.66 822.79 1300.54 822.03C1304.31 818.75 1311.73 811.76 1314.62 804.71C1310.48 808.35 1305.95 811.61 1301.09 814.4C1300.33 814.89 1299.57 815.32 1298.78 815.74C1298.81 808.81 1298.6 801.82 1298.08 794.89C1299.18 793.64 1300.21 792.37 1301.15 791.06C1305.8 784.95 1309.42 778.26 1311.79 771.21C1308.48 775.01 1304.65 778.44 1300.45 781.51C1299.36 782.3 1298.23 783.06 1297.08 783.82C1294.68 762.51 1289.72 740.93 1282.24 723.97C1256.95 802.58 1244.82 920.1 1247.19 1068.29L1205.25 1057.59C1205.28 1055.95 1205.31 1054.31 1205.37 1052.69C1209.35 897.51 1240.45 787.38 1269.66 721.23C1269.72 721.05 1269.77 720.92 1269.81 720.84C1253.67 726.04 1238.93 733.42 1225.95 741.45C1225.13 736.16 1225.07 730.81 1225.86 725.52C1222.54 731.51 1220.69 738.26 1220.29 745.07C1217.1 747.16 1214.09 749.26 1211.23 751.36C1210.29 746.37 1210.11 741.27 1210.66 736.22C1208.83 740.6 1207.01 745.01 1205.82 749.6C1205.28 751.78 1204.88 754 1204.73 756.22C1202.54 757.95 1200.44 759.63 1198.38 761.3C1198.31 761.02 1198.25 760.72 1198.19 760.45C1197.37 756.65 1197.37 752.6 1198.22 748.8C1195.34 751.63 1193.51 755.46 1192.57 759.41C1191.99 761.88 1191.78 764.43 1191.75 766.95C1181.92 775.61 1174.22 783.34 1168.65 790.15C1168.67 790.04 1168.69 789.89 1168.71 789.69C1170.2 773.21 1175.64 759.38 1183.45 746.07C1193.03 729.84 1208.71 717.34 1226.65 711.63C1229.63 710.69 1232.66 709.93 1235.73 709.35C1238.14 708.89 1240.54 708.59 1242.94 708.38C1250.39 707.68 1257.99 708.1 1265.31 709.56C1252.88 705.12 1241.05 701.84 1230.02 699.41C1233 695.24 1236.77 691.69 1240.84 688.56C1234.7 690.93 1228.44 693.81 1223.58 698.07C1214.79 696.37 1206.55 695.24 1198.89 694.48C1201.99 687.46 1206.98 681.23 1213.09 677.64C1204.3 681.17 1196.98 688.53 1192.87 694C1184.15 693.36 1176.34 693.27 1169.5 693.45C1172.32 687.8 1176.58 682.81 1181.9 679.35C1171.78 683.78 1167.28 688.1 1163.84 693.72C1153.33 694.33 1145.08 695.44 1139.1 697.04C1154.12 677.16 1175.64 664.33 1198.25 661.84C1220.87 659.31 1244.31 667.13 1262.73 683.3C1265.13 685.36 1267.87 688.37 1270.51 691.75C1265.8 679.62 1258.56 664.97 1247.92 652.56C1250.2 650.19 1253.09 648.4 1256.25 647.49C1252.55 647.46 1248.81 648.28 1245.43 649.8C1241.88 645.94 1237.95 642.38 1233.64 639.25C1232.24 638.19 1230.66 637.37 1229.02 636.61C1231.21 633.84 1233.73 631.35 1236.65 629.34C1232.3 629.68 1228.26 631.96 1225.49 635.27C1221.42 634.05 1217.01 633.41 1212.88 633.17C1215.09 629.92 1218.01 627.09 1221.39 625.02C1221.69 624.84 1222.09 624.54 1222.03 624.2C1216.43 625.21 1211.42 628.49 1208.1 633.05C1203.48 633.07 1199.42 633.36 1195.91 633.93C1200.59 622.99 1205.94 616.03 1214.55 611.1C1224.27 605.48 1235.73 605.66 1245.74 610.68C1262.97 619.34 1272.7 639.86 1277.68 657.64C1280.06 666.03 1281.39 674.57 1282.09 683.21C1284.65 664.57 1292.15 646.67 1305.38 633.38C1310.42 628.34 1316.08 623.81 1322.52 620.65C1333.4 615.27 1346.32 614.05 1358.18 616.88C1370 619.7 1383.5 628.19 1388.61 635.66C1378.73 637.34 1369.64 639.74 1361.25 642.69C1360 641.89 1358.69 641.17 1357.42 640.47C1350.76 636.76 1343.89 633.17 1336.41 631.62C1339.18 633.63 1341.95 635.69 1344.71 637.73C1347.45 639.71 1350.15 641.74 1352.31 644.27C1352.71 644.75 1353.01 645.24 1353.34 645.73C1349.12 647.49 1345.05 649.4 1341.19 651.41C1336.23 647.97 1330.67 645.36 1324.8 643.87C1329.09 646.61 1332.52 650.44 1335.62 654.45C1314.07 666.85 1300.27 682.63 1292.06 694.67C1306.62 684 1324.98 676.64 1341.7 675.52C1380.73 672.84 1416.27 686.91 1437 737.1C1418.49 726.92 1409.76 724.76 1389.4 719.44C1386.87 712.36 1381.86 706.16 1375.44 702.3C1377.3 706.98 1378.79 711.81 1379.85 716.77C1373.04 714.61 1365.72 712.94 1358.42 712.42C1355.14 706.28 1350.82 701.81 1345.11 697.95C1345.71 701.84 1347.72 707.4 1348.33 711.26C1337.11 709.14 1320.82 706.98 1306.08 707.07C1321.15 708.86 1336.23 713.12 1348.03 721.63C1365.08 733.94 1378 750.96 1384.81 769.99Z" />
					</g>
					<path id="&lt;Path&gt;" class="shp2" d="M1119.24 991.86C1131.02 992.31 1139.76 993.57 1145.44 995.64C1129.78 996.14 1120.9 996.99 1118.82 998.19" />
					<path id="&lt;Path&gt;" class="shp2" d="M1213.41 1031.57C1219.76 1031.66 1224.43 1032.65 1227.43 1034.54C1218.97 1033.91 1214.15 1034.23 1212.99 1035.49" />
					<path id="&lt;Path&gt;" class="shp2" d="M1214.62 972.04C1220.97 972.13 1225.64 973.12 1228.65 975.01C1220.18 973.88 1215.37 973.94 1214.2 975.2" />
					<path id="&lt;Path&gt;" class="shp2" d="M1223.48 894.93C1229.83 895.02 1234.5 896.01 1237.51 897.9C1229.04 896.77 1224.22 896.84 1223.06 898.1" />
					<path id="&lt;Path&gt;" class="shp2" d="M1237.93 820.46C1244.27 820.55 1248.95 821.54 1251.95 823.43C1243.48 822.57 1238.67 822.77 1237.51 824.03" />
					<path id="&lt;Path&gt;" class="shp2" d="M1112.99 887.52C1126.06 888.13 1135.77 889.3 1142.11 891.02C1124.77 891.06 1114.95 891.52 1112.67 892.4" />
					<path id="&lt;Path&gt;" class="shp2" d="M1106.8 797.72C1114.71 797.99 1120.56 798.9 1124.36 800.46C1113.84 800.95 1107.88 801.67 1106.47 802.6" />
					<path id="&lt;Path&gt;" class="shp2" d="M1092.62 685.24C1098.82 685.45 1103.41 686.17 1106.39 687.4C1098.14 687.8 1093.46 688.38 1092.36 689.12" />
					<path id="&lt;Path&gt;" class="shp2" d="M1073.21 593.35C1076.95 593.46 1079.72 593.93 1081.51 594.74C1076.53 595.05 1073.7 595.46 1073.03 595.97" />
					<g id="&lt;Group&gt;">
						<path id="&lt;Path&gt;" class="shp3" d="M875.13 689.31C863.06 647.1 860.52 616.27 870.76 583.55C881.02 550.74 901.96 520.91 930.08 498.89C943.89 488.06 960.63 480.77 978.31 476.03C841.36 534.24 873.67 682.92 875.13 689.31Z" />
					</g>
					<g id="&lt;Group&gt;">
						<path id="&lt;Path&gt;" class="shp3" d="M1123.76 1043.59L1112.94 1043.27L1112.91 1043.2C1106.99 795.84 1089.74 628.99 1042.14 498.54C1043.28 500.62 1117.62 634.34 1123.76 1043.59Z" />
					</g>
					<g id="&lt;Group&gt;">
						<path id="&lt;Path&gt;" class="shp3" d="M1029.3 727.83C994.62 691.29 968.05 647.56 965.16 600.98C964.19 585.19 966.19 568.89 971.09 553.29C968.44 562.53 949.39 640.2 1029.3 727.83Z" />
					</g>
					<g id="&lt;Group&gt;">
						<path id="&lt;Path&gt;" class="shp3" d="M1216.01 1054.53L1205.36 1052.69C1209.36 897.5 1240.44 787.37 1269.65 721.22C1266.27 729.66 1208.88 874.69 1216.01 1054.53Z" />
					</g>
					<g id="&lt;Group&gt;">
						<path id="&lt;Path&gt;" class="shp3" d="M1242.94 708.38C1181.38 720.6 1169.68 783.79 1168.71 789.69C1170.2 773.21 1175.64 759.38 1183.45 746.07C1193.03 729.84 1208.71 717.34 1226.65 711.63C1229.63 710.69 1232.66 709.93 1235.73 709.35L1242.94 708.38Z" />
					</g>
					<g id="&lt;Group&gt;">
						<path id="&lt;Path&gt;" class="shp3" d="M1298.63 823.64C1298.99 823.34 1299.66 822.79 1300.54 822.03C1299.6 833.13 1297.84 845.23 1295.01 858.36C1297.05 847.51 1298.2 835.71 1298.63 823.64Z" />
					</g>
					<g id="&lt;Group&gt;">
						<path id="&lt;Path&gt;" class="shp3" d="M1297.08 783.82C1294.68 762.51 1289.72 740.93 1282.24 723.97C1291.79 736.15 1297.86 755.33 1300.45 781.51C1299.36 782.3 1298.23 783.06 1297.08 783.82Z" />
					</g>
					<g id="&lt;Group&gt;">
						<path id="&lt;Path&gt;" class="shp3" d="M1301.09 814.4C1300.33 814.89 1299.57 815.32 1298.78 815.74C1298.81 808.81 1298.6 801.82 1298.08 794.89C1299.18 793.64 1300.21 792.37 1301.15 791.06C1301.52 798.23 1301.55 806.01 1301.09 814.4Z" />
					</g>
				</g>
			</g>
			<path id="&lt;Compound Path&gt;" fill-rule="evenodd" class="shp2" d="M398.84 660.99C399.22 660.86 399.77 660.74 400.48 660.63C401.56 660.47 403.12 660.37 404.99 660.68C406.86 660.95 409 661.67 411.11 662.87C412.15 663.48 413.18 664.21 414.13 665.07C414.31 665.23 414.49 665.39 414.66 665.56C415.04 665.2 415.54 664.77 415.95 664.44C416.92 663.63 417.98 662.97 419.03 662.4C421.14 661.28 423.28 660.6 425.13 660.33C426.98 660.02 428.55 660.1 429.61 660.23C430.33 660.33 430.88 660.43 431.27 660.55C430.91 660.72 430.4 660.95 429.76 661.25C428.82 661.68 427.53 662.32 426.08 663.13C424.64 663.98 423.04 664.98 421.51 666.23C420.73 666.85 419.96 667.5 419.22 668.21L418.15 669.28L417.56 669.91C417.27 670.2 416.93 670.57 416.24 670.95C415.89 671.13 415.42 671.31 414.82 671.35C414.66 671.36 414.52 671.36 414.35 671.35C414.15 671.34 413.87 671.29 413.75 671.25L413.45 671.16C413.3 671.11 413.16 671.04 413.03 670.98C412.01 670.38 411.81 669.89 411.67 669.79C411.33 669.41 411.02 669.01 410.67 668.65C409.97 667.93 409.26 667.24 408.51 666.61C407.04 665.33 405.47 664.3 404.04 663.47C402.61 662.66 401.3 662.04 400.37 661.64C399.72 661.37 399.21 661.15 398.84 660.99ZM414.66 665.56C414.61 665.61 414.55 665.67 414.5 665.72L413.88 666.34C413.85 666.38 413.81 666.41 413.79 666.43C413.8 666.42 413.83 666.4 413.86 666.39C413.95 666.34 414.14 666.25 414.45 666.23C414.54 666.22 414.61 666.23 414.7 666.23C414.83 666.24 415.04 666.28 415.08 666.3C415.14 666.32 414.82 666.22 415.18 666.34L415.4 666.43C415.55 666.53 415.65 666.6 415.69 666.64C415.65 666.6 415.59 666.53 415.51 666.44C415.24 666.13 414.95 665.84 414.66 665.56ZM450.68 508.04C451.08 507.96 451.64 507.92 452.36 507.91C453.45 507.89 455.01 508 456.82 508.57C458.64 509.08 460.66 510.09 462.59 511.56C463.54 512.3 464.46 513.17 465.29 514.15C465.44 514.33 465.59 514.52 465.74 514.71C466.16 514.4 466.72 514.04 467.17 513.77C468.25 513.1 469.39 512.59 470.5 512.16C472.75 511.34 474.95 510.96 476.83 510.94C478.7 510.88 480.24 511.17 481.28 511.45C481.97 511.64 482.51 511.82 482.88 511.99C482.49 512.11 481.97 512.27 481.29 512.47C480.3 512.77 478.93 513.23 477.39 513.84C475.85 514.49 474.13 515.26 472.44 516.3C471.59 516.8 470.73 517.35 469.91 517.95L468.7 518.87L468.03 519.41C467.7 519.66 467.32 519.98 466.58 520.26C466.21 520.39 465.72 520.51 465.12 520.47C464.96 520.45 464.82 520.44 464.65 520.4C464.46 520.37 464.19 520.27 464.07 520.23L463.79 520.09C463.65 520.02 463.52 519.94 463.4 519.86C462.47 519.13 462.33 518.61 462.2 518.49C461.93 518.07 461.67 517.64 461.37 517.23C460.78 516.42 460.16 515.64 459.51 514.91C458.22 513.45 456.81 512.22 455.51 511.2C454.2 510.2 452.98 509.42 452.11 508.89C451.5 508.53 451.03 508.25 450.68 508.04ZM465.74 514.71C465.68 514.75 465.62 514.8 465.57 514.84L464.87 515.37C464.83 515.41 464.79 515.43 464.76 515.45C464.78 515.44 464.8 515.43 464.84 515.42C464.93 515.38 465.14 515.32 465.45 515.34C465.53 515.35 465.6 515.36 465.69 515.38C465.82 515.4 466.02 515.47 466.06 515.5C466.11 515.52 465.81 515.38 466.15 515.55L466.35 515.67C466.5 515.79 466.58 515.87 466.62 515.92C466.59 515.87 466.53 515.8 466.47 515.69C466.24 515.35 466 515.02 465.74 514.71ZM667.2 567.78C667.59 567.66 668.14 567.56 668.86 567.48C669.94 567.37 671.51 567.34 673.36 567.73C675.22 568.08 677.33 568.89 679.38 570.17C680.4 570.83 681.39 571.61 682.31 572.5C682.48 572.67 682.65 572.84 682.82 573.02C683.21 572.67 683.73 572.26 684.15 571.95C685.16 571.18 686.25 570.57 687.32 570.04C689.48 569.01 691.63 568.43 693.5 568.24C695.36 568.01 696.92 568.15 697.98 568.33C698.69 568.45 699.24 568.58 699.63 568.72C699.25 568.87 698.74 569.08 698.09 569.35C697.13 569.74 695.81 570.32 694.33 571.08C692.86 571.86 691.22 572.79 689.63 573.98C688.83 574.56 688.03 575.18 687.26 575.86L686.15 576.88L685.53 577.48C685.23 577.76 684.87 578.12 684.16 578.46C683.81 578.63 683.33 578.79 682.72 578.81C682.57 578.81 682.43 578.81 682.26 578.79C682.06 578.77 681.78 578.7 681.67 578.67L681.37 578.56C681.22 578.5 681.08 578.43 680.96 578.36C679.96 577.72 679.78 577.22 679.64 577.11C679.33 576.72 679.03 576.31 678.7 575.94C678.03 575.18 677.34 574.46 676.63 573.8C675.21 572.46 673.69 571.36 672.3 570.47C670.9 569.6 669.62 568.93 668.7 568.49C668.07 568.19 667.56 567.95 667.2 567.78ZM682.82 573.02C682.76 573.07 682.7 573.12 682.65 573.17L682.01 573.76C681.97 573.8 681.93 573.83 681.91 573.84C681.92 573.83 681.95 573.82 681.98 573.81C682.07 573.76 682.27 573.69 682.58 573.68C682.66 573.67 682.73 573.68 682.83 573.69C682.95 573.7 683.16 573.75 683.21 573.77C683.26 573.79 682.94 573.68 683.3 573.81L683.51 573.92C683.66 574.02 683.76 574.1 683.8 574.14C683.76 574.1 683.7 574.03 683.63 573.93C683.37 573.61 683.1 573.31 682.82 573.02ZM744.15 477.52C743.58 477.74 742.78 478.04 741.77 478.42C740.29 478.97 738.24 479.81 735.93 480.9C733.64 482.04 731.09 483.41 728.59 485.14C723.02 489.02 719.51 492.87 718.18 493.15C716.19 493.57 714.07 489.5 708.68 484.3C706.52 482.22 704.27 480.44 702.18 479.01C700.08 477.62 698.14 476.53 696.75 475.82C695.79 475.33 695.03 474.94 694.48 474.66C695.08 474.49 695.93 474.37 697.04 474.28C698.7 474.16 701.1 474.17 703.93 474.85C706.76 475.46 709.96 476.81 713.05 478.86C714.58 479.91 716.07 481.15 717.44 482.56C717.69 482.83 717.92 483.13 718.17 483.4C718.79 482.88 719.61 482.27 720.29 481.79C721.87 480.66 723.56 479.77 725.22 479.01C728.58 477.52 731.92 476.73 734.79 476.52C737.65 476.24 740.03 476.53 741.65 476.85C742.73 477.07 743.57 477.29 744.15 477.52ZM574.4 581.92C574.02 582.01 573.49 582.13 572.82 582.29C571.83 582.52 570.46 582.89 568.91 583.39C567.37 583.93 565.64 584.58 563.92 585.48C560.06 587.48 557.53 589.64 556.66 589.71C555.37 589.82 554.35 587.06 551.36 583.33C550.16 581.83 548.88 580.52 547.67 579.44C546.45 578.39 545.31 577.54 544.49 576.97C543.92 576.59 543.47 576.28 543.14 576.06C543.54 576 544.09 575.99 544.79 576.02C545.86 576.08 547.38 576.28 549.11 576.95C550.86 577.57 552.78 578.68 554.57 580.23C555.46 581.02 556.3 581.93 557.05 582.94C557.19 583.13 557.31 583.34 557.45 583.53C557.88 583.25 558.45 582.93 558.92 582.68C560.02 582.09 561.16 581.67 562.28 581.32C564.53 580.65 566.71 580.42 568.54 580.52C570.38 580.57 571.87 580.95 572.87 581.29C573.54 581.52 574.05 581.72 574.4 581.92ZM703.09 426.27C702.85 426.31 702.51 426.37 702.09 426.45C701.47 426.56 700.61 426.74 699.63 427C698.65 427.28 697.55 427.63 696.45 428.13C693.98 429.25 692.34 430.51 691.79 430.52C690.99 430.54 690.45 428.8 688.71 426.37C688.01 425.4 687.26 424.54 686.54 423.83C685.82 423.14 685.14 422.57 684.65 422.19C684.31 421.93 684.04 421.73 683.84 421.58C684.09 421.55 684.43 421.57 684.87 421.61C685.53 421.68 686.47 421.86 687.53 422.33C688.59 422.77 689.75 423.53 690.81 424.56C691.34 425.08 691.83 425.67 692.26 426.32C692.35 426.44 692.41 426.58 692.49 426.7C692.77 426.54 693.13 426.36 693.44 426.23C694.14 425.89 694.86 425.67 695.57 425.49C696.99 425.15 698.35 425.08 699.49 425.2C700.63 425.3 701.55 425.58 702.16 425.83C702.56 425.99 702.87 426.14 703.09 426.27ZM231.17 712.14C230.94 712.23 230.63 712.35 230.23 712.51C229.64 712.73 228.82 713.08 227.91 713.52C227.01 713.99 226 714.55 225.01 715.25C222.81 716.82 221.44 718.37 220.91 718.49C220.12 718.67 219.25 717.06 217.08 715.02C216.21 714.2 215.31 713.51 214.47 712.95C213.62 712.41 212.85 711.98 212.29 711.71C211.9 711.52 211.6 711.37 211.38 711.26C211.62 711.19 211.96 711.13 212.39 711.09C213.06 711.03 214.01 711.03 215.14 711.28C216.27 711.51 217.55 712.03 218.79 712.83C219.41 713.24 220.01 713.73 220.56 714.28C220.66 714.39 220.76 714.51 220.86 714.61C221.1 714.4 221.42 714.16 221.69 713.96C222.31 713.5 222.98 713.14 223.64 712.83C224.97 712.22 226.29 711.88 227.43 711.79C228.57 711.66 229.52 711.76 230.17 711.88C230.6 711.96 230.93 712.05 231.17 712.14ZM425.18 624.02C425.43 623.96 425.78 623.93 426.24 623.91C426.93 623.89 427.92 623.94 429.07 624.28C430.23 624.58 431.53 625.2 432.76 626.1C433.38 626.56 433.97 627.1 434.5 627.71C434.6 627.83 434.7 627.94 434.8 628.06C435.06 627.86 435.41 627.63 435.7 627.45C436.37 627.01 437.08 626.67 437.78 626.39C439.2 625.84 440.59 625.57 441.78 625.54C442.96 625.48 443.94 625.64 444.61 625.81C445.05 625.92 445.39 626.02 445.63 626.13C445.38 626.21 445.05 626.32 444.63 626.45C444 626.65 443.14 626.96 442.17 627.37C441.2 627.8 440.12 628.31 439.06 628.98C438.53 629.32 438 629.67 437.48 630.06L436.73 630.66L436.31 631.01C436.1 631.17 435.86 631.38 435.4 631.57C435.17 631.65 434.86 631.73 434.47 631.72C434.38 631.71 434.29 631.7 434.18 631.68C434.06 631.66 433.88 631.61 433.81 631.58L433.63 631.5C433.54 631.45 433.45 631.4 433.38 631.35C432.78 630.9 432.69 630.57 432.61 630.5C432.43 630.24 432.25 629.97 432.06 629.71C431.68 629.21 431.28 628.72 430.86 628.27C430.02 627.35 429.11 626.59 428.27 625.96C427.43 625.35 426.65 624.86 426.09 624.54C425.7 624.32 425.4 624.15 425.18 624.02ZM434.69 628.15L434.25 628.49C434.23 628.51 434.21 628.53 434.19 628.54C434.2 628.54 434.22 628.53 434.24 628.52C434.3 628.5 434.43 628.46 434.62 628.47C434.68 628.47 434.72 628.47 434.78 628.49C434.86 628.5 434.99 628.54 435.01 628.56C435.05 628.57 434.85 628.49 435.07 628.59L435.2 628.66C435.29 628.74 435.34 628.79 435.37 628.81C435.35 628.79 435.31 628.74 435.27 628.67C435.13 628.46 434.97 628.26 434.8 628.06C434.76 628.09 434.73 628.12 434.69 628.15ZM787.7 571.26C787.92 571.13 788.25 570.99 788.68 570.85C789.34 570.63 790.3 570.39 791.5 570.38C792.7 570.34 794.11 570.55 795.56 571.06C796.28 571.33 797 571.67 797.69 572.1C797.82 572.18 797.95 572.26 798.08 572.35C798.27 572.08 798.54 571.76 798.76 571.5C799.27 570.89 799.86 570.36 800.45 569.89C801.65 568.95 802.9 568.3 804.03 567.92C805.15 567.52 806.13 567.4 806.81 567.36C807.27 567.34 807.63 567.35 807.88 567.38C807.68 567.52 807.39 567.72 807.02 567.98C806.48 568.35 805.75 568.89 804.93 569.56C804.13 570.25 803.24 571.05 802.42 572.01C802.01 572.48 801.6 572.97 801.22 573.49L800.67 574.28L800.37 574.74C800.22 574.95 800.05 575.22 799.66 575.53C799.46 575.68 799.19 575.85 798.82 575.95C798.72 575.97 798.63 575.98 798.53 576C798.4 576.01 798.22 576.01 798.14 576L797.94 575.98C797.85 575.96 797.75 575.94 797.66 575.91C796.96 575.65 796.78 575.36 796.68 575.32C796.43 575.12 796.19 574.91 795.93 574.72C795.42 574.35 794.89 574 794.36 573.68C793.29 573.05 792.2 572.58 791.22 572.22C790.24 571.88 789.35 571.64 788.72 571.49C788.29 571.39 787.95 571.32 787.7 571.26ZM798 572.46L797.68 572.92C797.66 572.95 797.64 572.97 797.63 572.99C797.64 572.98 797.65 572.97 797.67 572.95C797.72 572.91 797.83 572.84 798.02 572.79C798.07 572.78 798.12 572.77 798.18 572.76C798.26 572.75 798.39 572.76 798.42 572.76C798.46 572.77 798.25 572.74 798.49 572.77L798.63 572.81C798.74 572.86 798.81 572.89 798.84 572.91C798.81 572.89 798.76 572.85 798.71 572.8C798.5 572.64 798.29 572.49 798.08 572.35C798.05 572.39 798.02 572.43 798 572.46Z" />
			<path id="&lt;Path&gt;" class="shp2" d="M840 1153.35C856.53 1137.04 696.64 1161.57 699.29 1153.57C701.94 1145.58 889.31 1110.15 892.76 1096.56C894.06 1091.42 881.25 1091.59 854.32 1097.07C897.43 1077.88 1084.02 1043.28 1151.24 1049.68C1218.49 1056.04 1296.88 1060.93 1363.13 1117.02C1405.48 1152.88 1414.14 1182.12 1415.61 1191.36L646.53 1191.36C679.78 1182.6 833.18 1160.07 840 1153.35Z" />
			<g id="&lt;Group&gt;">
				<g id="&lt;Group&gt;">
					<path id="&lt;Path&gt;" class="shp2" d="M358.52 646.76C367.1 661.24 357.13 680.66 353.92 680.68C295.16 680.88 115.28 680.76 72.35 680.68C61.66 680.66 79.44 670.43 85.69 670.1C101 669.31 114.67 677.06 128.9 667.85C138.72 661.49 140 654.83 148.56 646.73C153.14 642.41 161.48 640.91 166.2 641.99C170.59 642.98 176.9 646.27 179.86 649.66C181.66 651.72 183.45 654.11 186.09 654.82C188.86 655.56 191.78 654.22 194.03 652.45C202.3 645.93 209.35 637.89 218.08 631.92C232.8 621.85 247.26 624.88 262.24 632.42C267.89 635.27 273.57 642.71 279.95 643C285.59 643.26 289.92 638.43 294.14 634.69C300.28 629.22 308.23 626.11 316.44 625.62C331.1 624.74 348.93 630.57 358.52 646.76Z" />
				</g>
				<g id="&lt;Group&gt;">
					<path id="&lt;Path&gt;" class="shp2" d="M802.46 687.11C763.66 687.25 690.79 687.16 662.44 687.11C655.38 687.1 667.12 680.34 671.25 680.13C681.36 679.6 690.39 684.72 699.79 678.64C706.27 674.44 707.11 670.04 712.77 664.69C715.79 661.84 721.3 660.85 724.42 661.56C727.32 662.21 731.49 664.39 733.44 666.63C734.63 667.99 735.81 669.56 737.56 670.03C739.38 670.52 741.31 669.64 742.8 668.47C748.26 664.16 754.11 659.62 759.87 655.68C769.6 649.03 780.32 650.21 790.14 655.33C810.21 665.8 804.58 687.1 802.46 687.11Z" />
				</g>
				<g id="&lt;Group&gt;">
					<path id="&lt;Path&gt;" class="shp2" d="M589.19 874.29C594.69 883.57 588.3 896.02 586.25 896.03C548.59 896.16 433.31 896.08 405.8 896.03C398.95 896.01 410.35 889.46 414.35 889.25C424.16 888.74 432.92 893.71 442.04 887.81C448.34 883.73 449.15 879.46 454.64 874.27C457.58 871.51 462.92 870.55 465.95 871.23C468.76 871.87 472.8 873.98 474.7 876.15C475.86 877.47 477 879 478.69 879.46C480.47 879.93 482.34 879.07 483.78 877.94C489.08 873.76 493.6 868.61 499.19 864.78C508.63 858.33 517.89 860.27 527.49 865.1C531.12 866.93 534.75 871.7 538.84 871.88C542.45 872.05 545.23 868.95 547.93 866.55C551.87 863.05 556.96 861.06 562.22 860.74C571.62 860.18 583.04 863.91 589.19 874.29Z" />
				</g>
				<g id="&lt;Group&gt;">
					<path id="&lt;Path&gt;" class="shp2" d="M974.65 730.06C980.15 739.34 973.76 751.79 971.71 751.8C934.05 751.93 818.77 751.85 791.26 751.8C784.41 751.78 795.81 745.23 799.81 745.02C809.62 744.51 818.38 749.48 827.5 743.57C833.8 739.5 834.61 735.23 840.1 730.04C843.04 727.27 848.38 726.31 851.41 727C854.22 727.64 858.26 729.75 860.16 731.92C861.32 733.24 862.46 734.77 864.15 735.22C865.93 735.7 867.8 734.84 869.24 733.71C874.54 729.53 879.06 724.37 884.65 720.55C894.09 714.1 903.35 716.04 912.95 720.87C916.58 722.69 920.21 727.46 924.3 727.65C927.91 727.82 930.69 724.72 933.39 722.32C937.33 718.82 942.42 716.83 947.69 716.51C957.08 715.95 968.5 719.68 974.65 730.06Z" />
				</g>
			</g>
			<g id="&lt;Group&gt;">
				<g id="&lt;Group&gt;">
					<g id="&lt;Group&gt;">
						<path id="&lt;Path&gt;" class="shp4" d="M943.49 1146.77C942.22 1148.03 940.8 1149.21 939.4 1150.41C938.29 1151.35 936.49 1152.56 935.85 1153.69C935.38 1154.53 936.69 1155.71 937.16 1156.32C938.03 1157.46 939.03 1158.53 939.84 1159.69C940.34 1160.41 942.33 1162.78 940.72 1163.76C936.19 1166.5 927.11 1162.35 924.9 1162.47C922.68 1162.58 917.4 1172.32 913.18 1172.16C912.54 1172.14 912.12 1172.13 911.7 1171.79C910.38 1170.74 910.52 1168.65 910.55 1167.17C910.57 1165.92 910.71 1164.65 910.87 1163.39C910.95 1162.75 911.45 1161.5 910.75 1161.09C910.31 1160.84 909.3 1161.01 908.71 1161.03C907.83 1161.07 906.93 1161.17 906.05 1161.24C904.12 1161.39 902.14 1161.57 900.31 1161.4C898.48 1161.23 896.09 1160.3 897.33 1158.57C898.36 1157.13 900.74 1156.1 902.55 1155.26C904.68 1154.27 906.88 1153.39 909.08 1152.52C910.12 1152.1 912.53 1151.5 912.71 1150.51C912.79 1150.03 912.66 1149.57 912.65 1149.1C912.65 1148.29 912.64 1147.48 912.65 1146.68C912.68 1144.98 912.75 1143.26 913.2 1141.52C913.45 1140.56 913.92 1138.84 915.52 1138.35C917.37 1137.78 919.09 1138.36 920.35 1139.01C922.14 1139.93 923.53 1141.21 924.77 1142.51C925.34 1143.1 925.88 1143.71 926.39 1144.33C926.99 1145.04 927.09 1145.91 928.69 1145.47C932.13 1144.52 935.66 1143.69 939.15 1143.23C940.63 1143.04 942.24 1142.87 943.61 1143.09C944.71 1143.27 944.85 1143.62 945.17 1144.27C945.51 1144.95 944.08 1146.19 943.49 1146.77Z" />
					</g>
					<g id="&lt;Group&gt;">
						<path id="&lt;Path&gt;" class="shp4" d="M978.57 1150.51C977.81 1150.91 976.99 1151.25 976.19 1151.6C975.55 1151.87 974.55 1152.17 974.1 1152.6C973.76 1152.92 974.19 1153.64 974.32 1153.99C974.56 1154.63 974.87 1155.26 975.07 1155.91C975.2 1156.31 975.78 1157.68 974.9 1157.9C972.44 1158.51 968.87 1155.33 967.84 1155.07C966.81 1154.81 963.01 1158.51 961.1 1157.84C960.81 1157.74 960.62 1157.68 960.48 1157.47C960.02 1156.8 960.38 1155.86 960.61 1155.19C960.79 1154.62 961.04 1154.06 961.29 1153.5C961.42 1153.22 961.82 1152.72 961.56 1152.43C961.39 1152.25 960.91 1152.19 960.63 1152.12C960.22 1152.01 959.8 1151.93 959.38 1151.84C958.48 1151.63 957.55 1151.43 956.74 1151.1C955.92 1150.76 954.96 1150 955.77 1149.38C956.44 1148.87 957.68 1148.73 958.63 1148.6C959.75 1148.45 960.88 1148.36 962.01 1148.27C962.54 1148.23 963.73 1148.3 963.95 1147.87C964.06 1147.66 964.06 1147.43 964.13 1147.21C964.24 1146.84 964.35 1146.47 964.47 1146.1C964.72 1145.33 965 1144.55 965.45 1143.82C965.7 1143.42 966.16 1142.7 966.96 1142.7C967.89 1142.7 968.6 1143.21 969.08 1143.68C969.77 1144.36 970.22 1145.14 970.61 1145.91C970.78 1146.26 970.94 1146.62 971.09 1146.97C971.26 1147.38 971.19 1147.8 971.98 1147.82C973.69 1147.87 975.43 1148 977.09 1148.28C977.79 1148.4 978.55 1148.55 979.15 1148.84C979.63 1149.08 979.64 1149.26 979.7 1149.61C979.76 1149.97 978.92 1150.33 978.57 1150.51Z" />
					</g>
				</g>
			</g>
			<g id="&lt;Group&gt;">
				<g id="&lt;Group&gt;">
					<g id="&lt;Group&gt;">
						<g id="&lt;Group&gt;">
							<path id="&lt;Path&gt;" class="shp5" d="M703.14 1220.08C738.53 1220.06 773.91 1220.04 809.3 1220.02C933.38 1219.95 1057.5 1219.13 1181.58 1220.23C1182.5 1220.24 1182.5 1221.65 1181.58 1221.65C1146.2 1221.97 1110.81 1222.02 1075.43 1222.01C951.33 1221.94 827.24 1221.88 703.14 1221.81C702.03 1221.81 702.03 1220.08 703.14 1220.08Z" />
						</g>
					</g>
					<g id="&lt;Group&gt;">
						<g id="&lt;Group&gt;">
							<path id="&lt;Path&gt;" class="shp5" d="M1220.49 1220.08C1238.89 1219.99 1257.68 1218.83 1276.03 1220.23C1276.95 1220.3 1276.95 1221.58 1276.03 1221.65C1257.68 1223.06 1238.89 1221.9 1220.49 1221.81C1219.37 1221.8 1219.37 1220.08 1220.49 1220.08Z" />
						</g>
					</g>
					<g id="&lt;Group&gt;">
						<g id="&lt;Group&gt;">
							<path id="&lt;Path&gt;" class="shp5" d="M786.72 1226.44C849.46 1226.35 912.31 1225.18 975.04 1226.59C975.96 1226.61 975.95 1228 975.04 1228.02C912.31 1229.43 849.46 1228.26 786.72 1228.17C785.6 1228.17 785.6 1226.44 786.72 1226.44Z" />
						</g>
					</g>
					<g id="&lt;Group&gt;">
						<g id="&lt;Group&gt;">
							<path id="&lt;Path&gt;" class="shp5" d="M431.27 1212.42C475.49 1212.4 519.7 1212.39 563.92 1212.37C665.91 1212.33 767.9 1212.3 869.89 1212.26C957.05 1212.23 1044.21 1212.05 1131.36 1212.58C1132.28 1212.58 1132.28 1213.99 1131.36 1214C1087.15 1214.27 1042.93 1214.37 998.72 1214.36C896.73 1214.32 794.74 1214.29 692.75 1214.25C605.59 1214.22 518.43 1214.19 431.27 1214.15C430.15 1214.15 430.16 1212.42 431.27 1212.42Z" />
						</g>
					</g>
					<g id="&lt;Group&gt;">
						<g id="&lt;Group&gt;">
							<path id="&lt;Path&gt;" class="shp5" d="M1151.75 1212.42C1239.8 1212.33 1327.93 1211.16 1415.96 1212.58C1416.88 1212.59 1416.88 1213.99 1415.96 1214C1327.93 1215.41 1239.8 1214.24 1151.75 1214.15C1150.63 1214.15 1150.63 1212.42 1151.75 1212.42Z" />
						</g>
					</g>
					<g id="&lt;Group&gt;">
						<g id="&lt;Group&gt;">
							<path id="&lt;Path&gt;" class="shp5" d="M548.36 1205.38C593.68 1205.36 638.99 1205.34 684.3 1205.32C772.24 1205.29 860.18 1205.25 948.11 1205.22C1030.95 1205.19 1113.78 1204.99 1196.62 1205.53C1197.53 1205.54 1197.53 1206.95 1196.62 1206.96C1151.3 1207.25 1105.99 1207.33 1060.68 1207.31C972.74 1207.28 884.81 1207.24 796.87 1207.21C714.03 1207.18 631.2 1207.14 548.36 1207.11C547.25 1207.11 547.25 1205.38 548.36 1205.38Z" />
						</g>
					</g>
					<g id="&lt;Group&gt;">
						<g id="&lt;Group&gt;">
							<path id="&lt;Path&gt;" class="shp5" d="M1158.94 1205.38C1236.98 1205.29 1315.1 1204.12 1393.12 1205.53C1394.03 1205.55 1394.03 1206.94 1393.12 1206.96C1315.1 1208.37 1236.98 1207.2 1158.94 1207.11C1157.83 1207.11 1157.83 1205.38 1158.94 1205.38Z" />
						</g>
					</g>
					<g id="&lt;Group&gt;">
						<g id="&lt;Group&gt;">
							<path id="&lt;Path&gt;" class="shp5" d="M1070.78 1200.2C1148.82 1200.11 1226.94 1198.94 1304.96 1200.35C1305.88 1200.37 1305.87 1201.76 1304.96 1201.78C1226.94 1203.19 1148.82 1202.02 1070.78 1201.93C1069.67 1201.93 1069.67 1200.2 1070.78 1200.2Z" />
						</g>
					</g>
					<g id="&lt;Group&gt;">
						<g id="&lt;Group&gt;">
							<path id="&lt;Path&gt;" class="shp5" d="M625.37 1200.2C645.2 1200.18 665.03 1200.17 684.86 1200.15C777.84 1200.08 870.87 1199.19 963.85 1200.35C964.77 1200.36 964.77 1201.76 963.85 1201.78C944.02 1202.02 924.2 1202.15 904.37 1202.14C811.37 1202.07 718.37 1202 625.37 1201.93C624.26 1201.93 624.26 1200.2 625.37 1200.2Z" />
						</g>
					</g>
					<g id="&lt;Group&gt;">
						<g id="&lt;Group&gt;">
							<path id="&lt;Path&gt;" class="shp5" d="M1018.15 1194.97C1096.19 1194.88 1174.31 1193.71 1252.33 1195.12C1253.24 1195.14 1253.24 1196.53 1252.33 1196.55C1174.31 1197.96 1096.19 1196.79 1018.15 1196.7C1017.04 1196.7 1017.04 1194.97 1018.15 1194.97Z" />
						</g>
					</g>
				</g>
				<g id="&lt;Group&gt;">
					<g id="&lt;Group&gt;">
						<g id="&lt;Group&gt;">
							<path id="&lt;Path&gt;" class="shp4" d="M1046.06 1180.67C1076.48 1180.65 1106.9 1180.62 1137.32 1180.6C1226.95 1180.54 1316.61 1179.77 1406.22 1180.82C1407.14 1180.83 1407.14 1182.24 1406.22 1182.25C1375.8 1182.61 1345.38 1182.61 1314.95 1182.59C1225.32 1182.53 1135.69 1182.47 1046.06 1182.4C1044.94 1182.4 1044.94 1180.67 1046.06 1180.67Z" />
						</g>
					</g>
					<g id="&lt;Group&gt;">
						<g id="&lt;Group&gt;">
							<path id="&lt;Path&gt;" class="shp4" d="M1129.63 1187.03C1192.37 1186.94 1255.23 1185.77 1317.95 1187.18C1318.87 1187.21 1318.87 1188.59 1317.95 1188.61C1255.23 1190.02 1192.37 1188.85 1129.63 1188.76C1128.51 1188.76 1128.51 1187.03 1129.63 1187.03Z" />
						</g>
					</g>
					<g id="&lt;Group&gt;">
						<g id="&lt;Group&gt;">
							<path id="&lt;Path&gt;" class="shp4" d="M995.84 1173.01C1029.13 1172.99 1062.42 1172.97 1095.71 1172.95C1205.24 1172.89 1314.81 1172.08 1424.33 1173.17C1425.25 1173.18 1425.25 1174.58 1424.33 1174.59C1391.04 1174.92 1357.76 1174.96 1324.47 1174.94C1214.92 1174.88 1105.38 1174.82 995.84 1174.75C994.72 1174.75 994.72 1173.01 995.84 1173.01Z" />
						</g>
					</g>
					<g id="&lt;Group&gt;">
						<g id="&lt;Group&gt;">
							<path id="&lt;Path&gt;" class="shp4" d="M1092.43 1165.97C1123.16 1165.94 1153.9 1165.92 1184.63 1165.89C1254.12 1165.83 1323.64 1165.14 1393.12 1166.12C1394.03 1166.14 1394.03 1167.54 1393.12 1167.55C1362.38 1167.98 1331.65 1167.9 1300.91 1167.88C1231.41 1167.82 1161.92 1167.76 1092.43 1167.7C1091.31 1167.7 1091.31 1165.97 1092.43 1165.97Z" />
						</g>
					</g>
					<g id="&lt;Group&gt;">
						<g id="&lt;Group&gt;">
							<path id="&lt;Path&gt;" class="shp4" d="M1072.59 1160.79C1150.62 1160.7 1228.74 1159.53 1306.76 1160.94C1307.68 1160.96 1307.68 1162.35 1306.76 1162.37C1228.74 1163.78 1150.62 1162.61 1072.59 1162.52C1071.47 1162.52 1071.47 1160.79 1072.59 1160.79Z" />
						</g>
					</g>
					<g id="&lt;Group&gt;">
						<g id="&lt;Group&gt;">
							<path id="&lt;Path&gt;" class="shp4" d="M1361.07 1155.56C1383.16 1155.47 1405.55 1154.31 1427.63 1155.72C1428.54 1155.77 1428.54 1157.08 1427.63 1157.14C1405.55 1158.55 1383.16 1157.38 1361.07 1157.3C1359.95 1157.29 1359.95 1155.57 1361.07 1155.56Z" />
						</g>
					</g>
				</g>
			</g>
			<g id="&lt;Group&gt;">
				<g id="&lt;Group&gt;">
					<path id="&lt;Path&gt;" class="shp3" d="M715.37 751.87L450.68 751.87C450.68 678.78 509.93 619.53 583.02 619.53C656.11 619.53 715.37 678.78 715.37 751.87Z" />
				</g>
				<g id="&lt;Group&gt;">
					<g id="&lt;Group&gt;">
						<g id="&lt;Group&gt;">
							<path id="&lt;Path&gt;" class="shp3" d="M389.76 756.63C467.79 756.55 545.91 755.37 623.93 756.79C624.85 756.8 624.84 758.2 623.93 758.21C545.91 759.63 467.79 758.45 389.76 758.37C388.64 758.37 388.64 756.63 389.76 756.63Z" />
						</g>
					</g>
					<g id="&lt;Group&gt;">
						<g id="&lt;Group&gt;">
							<path id="&lt;Path&gt;" class="shp3" d="M604.34 761.63C643.3 761.55 682.49 760.38 721.43 761.79C722.35 761.82 722.34 763.18 721.43 763.21C682.49 764.62 643.3 763.45 604.34 763.37C603.22 763.36 603.23 761.64 604.34 761.63Z" />
						</g>
					</g>
					<g id="&lt;Group&gt;">
						<g id="&lt;Group&gt;">
							<path id="&lt;Path&gt;" class="shp3" d="M636.38 756.63C675.35 756.55 714.53 755.38 753.47 756.79C754.39 756.82 754.39 758.18 753.47 758.21C714.53 759.62 675.35 758.45 636.38 758.37C635.27 758.36 635.27 756.64 636.38 756.63Z" />
						</g>
					</g>
					<g id="&lt;Group&gt;">
						<g id="&lt;Group&gt;">
							<path id="&lt;Path&gt;" class="shp3" d="M490.88 768.13C529.85 768.05 569.03 766.88 607.97 768.29C608.89 768.32 608.89 769.68 607.97 769.71C569.03 771.12 529.85 769.95 490.88 769.87C489.77 769.86 489.77 768.14 490.88 768.13Z" />
						</g>
					</g>
				</g>
			</g>
		</g>
	</g>
</svg>